<?xml version="1.0" encoding="utf-8" standalone="no"?>
<!DOCTYPE svg PUBLIC "-//W3C//DTD SVG 1.1//EN" "http://www.w3.org/Graphics/SVG/1.1/DTD/svg11.dtd">
<svg width="1600px" height="1600px" version="1.1" xmlns="http://www.w3.org/2000/svg" xmlns:xlink="http://www.w3.org/1999/xlink">
<g id="ideograms">
<path d="M800.000,1260.000 A460.000,460.000 40.000 0,1 347.020,880.055 L248.546,897.458 A560.000,560.000 0.000 0,0 800.000,1360.000 Z" style="stroke-width:2.0;stroke:rgb(0,0,0);stroke-linecap:round;fill:rgb(46,144,230);"/>
<text x="442.5" y="1260.5" font-size="41.6px" font-family="CMUSansSerif-DemiCondensed" style="text-anchor:end;fill:rgb(0,0,0);" transform="rotate(-410.0,442.5,1260.5)">Brown_Hair</text>
<path d="M800.000,1260.000 A460.000,460.000 40.000 0,1 347.020,880.055 L248.546,897.458 A560.000,560.000 0.000 0,0 800.000,1360.000 Z" style="stroke-width:2.0;stroke:rgb(0,0,0);stroke-linecap:round;fill:none;"/>
<path d="M342.875,851.351 A460.000,460.000 40.000 0,1 536.891,422.676 L479.693,340.649 A560.000,560.000 0.000 0,0 243.500,862.514 Z" style="stroke-width:2.0;stroke:rgb(0,0,0);stroke-linecap:round;fill:rgb(46,230,103);"/>
<text x="260.2" y="579.8" font-size="41.6px" font-family="CMUSansSerif-DemiCondensed" style="text-anchor:end;fill:rgb(0,0,0);" transform="rotate(-335.6,260.2,579.8)">Brown_Eyes</text>
<path d="M342.875,851.351 A460.000,460.000 40.000 0,1 536.891,422.676 L479.693,340.649 A560.000,560.000 0.000 0,0 243.500,862.514 Z" style="stroke-width:2.0;stroke:rgb(0,0,0);stroke-linecap:round;fill:none;"/>
<path d="M561.192,406.845 A460.000,460.000 40.000 0,1 1021.943,397.084 L1070.192,309.494 A560.000,560.000 0.000 0,0 509.277,321.377 Z" style="stroke-width:2.0;stroke:rgb(0,0,0);stroke-linecap:round;fill:rgb(171,230,46);"/>
<text x="765.7" y="218.0" font-size="41.6px" font-family="CMUSansSerif-DemiCondensed" style="text-anchor:end;fill:rgb(0,0,0);" transform="rotate(-271.2,765.7,218.0)">Blue_Eyes</text>
<path d="M561.192,406.845 A460.000,460.000 40.000 0,1 1021.943,397.084 L1070.192,309.494 A560.000,560.000 0.000 0,0 509.277,321.377 Z" style="stroke-width:2.0;stroke:rgb(0,0,0);stroke-linecap:round;fill:none;"/>
<path d="M1046.893,411.871 A460.000,460.000 40.000 0,1 1226.431,627.498 L1319.133,589.997 A560.000,560.000 0.000 0,0 1100.565,327.495 Z" style="stroke-width:2.0;stroke:rgb(0,0,0);stroke-linecap:round;fill:rgb(230,144,46);"/>
<text x="1261.8" y="444.1" font-size="41.6px" font-family="CMUSansSerif-DemiCondensed" style="text-anchor:start;fill:rgb(0,0,0);" transform="rotate(320.2,1261.8,444.1)">Blonde_Hair</text>
<path d="M1046.893,411.871 A460.000,460.000 40.000 0,1 1226.431,627.498 L1319.133,589.997 A560.000,560.000 0.000 0,0 1100.565,327.495 Z" style="stroke-width:2.0;stroke:rgb(0,0,0);stroke-linecap:round;fill:none;"/>
<path d="M1236.453,654.713 A460.000,460.000 40.000 0,1 1250.296,893.987 L1348.186,914.419 A560.000,560.000 0.000 0,0 1331.335,623.129 Z" style="stroke-width:2.0;stroke:rgb(0,0,0);stroke-linecap:round;fill:rgb(230,46,46);"/>
<text x="1382.9" y="788.3" font-size="41.6px" font-family="CMUSansSerif-DemiCondensed" style="text-anchor:start;fill:rgb(0,0,0);" transform="rotate(356.7,1382.9,788.3)">Black_Hair</text>
<path d="M1236.453,654.713 A460.000,460.000 40.000 0,1 1250.296,893.987 L1348.186,914.419 A560.000,560.000 0.000 0,0 1331.335,623.129 Z" style="stroke-width:2.0;stroke:rgb(0,0,0);stroke-linecap:round;fill:none;"/>
<path d="M1243.478,922.177 A460.000,460.000 40.000 0,1 1143.512,1105.940 L1218.189,1172.449 A560.000,560.000 0.000 0,0 1339.886,948.737 Z" style="stroke-width:2.0;stroke:rgb(0,0,0);stroke-linecap:round;fill:rgb(160,46,230);"/>
<text x="1301.3" y="1097.7" font-size="41.6px" font-family="CMUSansSerif-DemiCondensed" style="text-anchor:start;fill:rgb(0,0,0);" transform="rotate(28.5,1301.3,1097.7)">Hazel_Eyes</text>
<path d="M1243.478,922.177 A460.000,460.000 40.000 0,1 1143.512,1105.940 L1218.189,1172.449 A560.000,560.000 0.000 0,0 1339.886,948.737 Z" style="stroke-width:2.0;stroke:rgb(0,0,0);stroke-linecap:round;fill:none;"/>
<path d="M1123.550,1126.979 A460.000,460.000 40.000 0,1 993.264,1217.431 L1035.278,1308.177 A560.000,560.000 0.000 0,0 1193.887,1198.062 Z" style="stroke-width:2.0;stroke:rgb(0,0,0);stroke-linecap:round;fill:rgb(230,46,230);"/>
<text x="1114.2" y="1291.1" font-size="41.6px" font-family="CMUSansSerif-DemiCondensed" style="text-anchor:start;fill:rgb(0,0,0);" transform="rotate(55.2,1114.2,1291.1)">Red_Hair</text>
<path d="M1123.550,1126.979 A460.000,460.000 40.000 0,1 993.264,1217.431 L1035.278,1308.177 A560.000,560.000 0.000 0,0 1193.887,1198.062 Z" style="stroke-width:2.0;stroke:rgb(0,0,0);stroke-linecap:round;fill:none;"/>
<path d="M966.575,1228.781 A460.000,460.000 40.000 0,1 828.988,1259.086 L835.289,1358.887 A560.000,560.000 0.000 0,0 1002.787,1321.994 Z" style="stroke-width:2.0;stroke:rgb(0,0,0);stroke-linecap:round;fill:rgb(94,46,230);"/>
<text x="903.8" y="1373.7" font-size="41.6px" font-family="CMUSansSerif-DemiCondensed" style="text-anchor:start;fill:rgb(0,0,0);" transform="rotate(77.6,903.8,1373.7)">Green_Eyes</text>
<path d="M966.575,1228.781 A460.000,460.000 40.000 0,1 828.988,1259.086 L835.289,1358.887 A560.000,560.000 0.000 0,0 1002.787,1321.994 Z" style="stroke-width:2.0;stroke:rgb(0,0,0);stroke-linecap:round;fill:none;"/>
</g>
<g id="cell_">
<path d="M 1189.013,670.505 A 410.000,410.000 0.00 0,1 1192.1,680.0 L 1192.1,680.0 1178.9,684.5 1165.6,689.8 1152.4,695.8 1139.2,702.7 1126.1,710.3 1113.1,718.6 1100.3,727.6 1087.7,737.3 1075.2,747.7 1063.1,758.6 1051.2,770.2 1039.6,782.2 1028.4,794.9 1017.5,808.0 1007.1,821.5 997.0,835.5 987.4,849.9 978.3,864.7 969.7,879.8 961.6,895.2 954.0,910.8 946.9,926.6 940.5,942.7 934.6,958.9 929.3,975.1 924.5,991.5 920.5,1007.9 917.0,1024.3 914.2,1040.6 912.0,1056.8 910.5,1072.9 909.6,1088.8 909.4,1104.5 909.8,1119.9 910.9,1135.0 912.7,1149.8 915.2,1164.1 918.3,1178.0 922.0,1191.4  A 410.000,410.000 0.00 0,1 912.4,1194.3 L 912.4,1194.3 909.0,1180.7 906.2,1166.6 904.1,1152.1 902.6,1137.1 901.9,1121.8 901.8,1106.2 902.3,1090.3 903.5,1074.2 905.4,1057.8 907.9,1041.4 911.1,1024.8 914.8,1008.2 919.2,991.5 924.2,974.9 929.8,958.3 935.9,941.8 942.7,925.5 949.9,909.3 957.7,893.3 966.0,877.6 974.8,862.2 984.1,847.1 993.8,832.3 1003.9,817.9 1014.5,804.0 1025.4,790.4 1036.7,777.4 1048.3,764.9 1060.2,753.0 1072.4,741.6 1084.8,730.9 1097.4,720.8 1110.2,711.4 1123.2,702.6 1136.3,694.6 1149.4,687.4 1162.6,680.9 1175.8,675.3 1189.0,670.5  Z" style="stroke-width: 0.0;  fill: rgb(230,46,46);"/>
<path d="M 1174.606,633.355 A 410.000,410.000 0.00 0,1 1180.1,646.2 L 1180.1,646.2 1165.2,651.8 1149.6,657.0 1133.3,661.6 1116.3,665.9 1098.7,669.7 1080.5,673.2 1061.8,676.4 1042.6,679.3 1022.9,681.9 1002.7,684.2 982.2,686.3 961.4,688.1 940.2,689.8 918.8,691.2 897.1,692.5 875.3,693.5 853.3,694.4 831.3,695.2 809.1,695.8 787.0,696.2 764.8,696.4 742.7,696.5 720.8,696.4 698.9,696.2 677.2,695.7 655.8,695.1 634.6,694.2 613.6,693.2 593.1,691.9 572.9,690.3 553.1,688.5 533.7,686.3 514.9,683.8 496.6,681.0 478.9,677.8 461.7,674.2 445.3,670.2 429.5,665.6 414.4,660.6  A 410.000,410.000 0.00 0,1 419.4,647.5 L 419.4,647.5 434.1,653.0 449.6,658.0 465.7,662.5 482.6,666.5 500.0,670.1 518.0,673.4 536.6,676.3 555.7,678.8 575.2,681.0 595.1,682.9 615.5,684.6 636.1,685.9 657.1,687.0 678.3,687.9 699.8,688.5 721.4,688.9 743.2,689.1 765.0,689.1 786.9,688.9 808.9,688.5 830.8,687.9 852.6,687.1 874.4,686.1 896.0,684.8 917.4,683.4 938.6,681.7 959.5,679.9 980.1,677.7 1000.3,675.3 1020.2,672.7 1039.6,669.7 1058.6,666.5 1077.0,662.9 1094.9,659.0 1112.2,654.7 1128.9,650.0 1144.8,644.9 1160.1,639.4 1174.6,633.4  Z" style="stroke-width: 0.0;  fill: rgb(230,144,46);"/>
<path d="M 1044.771,471.082 A 410.000,410.000 0.00 0,1 1062.1,484.7 L 1062.1,484.7 1053.8,495.2 1045.9,506.3 1038.5,518.0 1031.7,530.2 1025.3,542.8 1019.5,555.9 1014.3,569.3 1009.7,583.0 1005.6,597.1 1002.3,611.3 999.6,625.8 997.5,640.5 996.2,655.2 995.5,670.1 995.5,685.0 996.2,699.8 997.6,714.7 999.7,729.5 1002.4,744.2 1005.9,758.7 1010.0,773.1 1014.8,787.2 1020.3,801.1 1026.3,814.7 1033.0,828.0 1040.3,841.0 1048.2,853.5 1056.6,865.7 1065.6,877.4 1075.0,888.6 1084.9,899.4 1095.2,909.6 1105.9,919.2 1117.0,928.2 1128.3,936.6 1140.0,944.4 1151.8,951.5 1163.8,957.9 1176.0,963.6  A 410.000,410.000 0.00 0,1 1166.6,983.5 L 1166.6,983.5 1154.7,977.1 1142.8,969.9 1131.2,962.0 1119.7,953.4 1108.5,944.1 1097.7,934.2 1087.1,923.6 1077.0,912.5 1067.2,900.8 1057.9,888.6 1049.1,876.0 1040.7,862.8 1032.9,849.3 1025.6,835.3 1018.9,821.1 1012.7,806.5 1007.2,791.6 1002.2,776.5 997.9,761.1 994.2,745.6 991.2,730.0 988.8,714.3 987.0,698.5 986.0,682.7 985.5,666.9 985.8,651.1 986.7,635.5 988.2,620.0 990.4,604.7 993.2,589.7 996.7,574.8 1000.7,560.3 1005.4,546.2 1010.6,532.4 1016.4,519.1 1022.8,506.3 1029.6,493.9 1037.0,482.2 1044.8,471.1  Z" style="stroke-width: 0.0;  fill: rgb(230,144,46);"/>
<path d="M 1088.382,1091.438 A 410.000,410.000 0.00 0,1 1067.8,1110.4 L 1067.8,1110.4 1059.7,1101.2 1051.4,1092.2 1043.1,1083.4 1034.8,1075.0 1026.4,1067.0 1018.2,1059.4 1010.1,1052.3 1002.1,1045.8 994.3,1039.8 986.8,1034.5 979.5,1029.9 972.5,1025.9 965.9,1022.7 959.6,1020.2 953.7,1018.5 948.2,1017.5 943.2,1017.3 938.5,1018.0 934.4,1019.4 930.7,1021.6 927.5,1024.6 924.7,1028.4 922.5,1033.0 920.8,1038.3 919.5,1044.3 918.8,1051.0 918.5,1058.4 918.7,1066.4 919.4,1075.0 920.6,1084.1 922.2,1093.8 924.2,1103.9 926.6,1114.4 929.5,1125.2 932.7,1136.3 936.2,1147.7 940.0,1159.1 944.1,1170.7 948.5,1182.2  A 410.000,410.000 0.00 0,1 922.0,1191.4 L 922.0,1191.4 918.5,1179.5 915.3,1167.6 912.4,1155.7 909.9,1144.0 907.8,1132.4 906.2,1121.0 904.9,1110.0 904.1,1099.3 903.8,1089.0 904.0,1079.2 904.7,1070.0 905.8,1061.2 907.5,1053.1 909.7,1045.7 912.4,1038.9 915.6,1032.8 919.2,1027.4 923.4,1022.8 928.1,1019.0 933.2,1015.9 938.8,1013.6 944.9,1012.0 951.4,1011.3 958.2,1011.3 965.5,1012.2 973.1,1013.7 981.0,1016.1 989.3,1019.1 997.8,1022.9 1006.5,1027.3 1015.4,1032.4 1024.5,1038.1 1033.7,1044.4 1042.9,1051.2 1052.2,1058.5 1061.4,1066.2 1070.5,1074.3 1079.6,1082.7 1088.4,1091.4  Z" style="stroke-width: 0.0;  fill: rgb(230,46,230);"/>
<path d="M 1067.810,1110.447 A 410.000,410.000 0.00 0,1 1046.0,1128.0 L 1046.0,1128.0 1038.6,1117.9 1031.6,1107.5 1025.0,1096.9 1018.9,1086.1 1013.2,1075.4 1008.1,1064.5 1003.6,1053.8 999.6,1043.1 996.3,1032.5 993.6,1022.1 991.6,1012.0 990.4,1002.0 989.8,992.4 990.0,983.1 990.9,974.2 992.5,965.6 994.9,957.5 998.0,949.8 1001.9,942.5 1006.5,935.8 1011.8,929.5 1017.9,923.8 1024.6,918.6 1031.9,913.9 1039.9,909.8 1048.5,906.2 1057.7,903.2 1067.4,900.8 1077.6,898.9 1088.2,897.6 1099.3,896.8 1110.7,896.6 1122.4,896.9 1134.3,897.7 1146.4,899.0 1158.6,900.8 1170.9,903.1 1183.1,905.8 1195.3,908.9  A 410.000,410.000 0.00 0,1 1186.9,935.6 L 1186.9,935.6 1175.1,931.7 1163.3,928.1 1151.4,924.8 1139.7,922.0 1128.0,919.6 1116.6,917.7 1105.5,916.2 1094.7,915.2 1084.2,914.7 1074.2,914.7 1064.7,915.3 1055.7,916.4 1047.3,918.0 1039.4,920.2 1032.3,923.0 1025.7,926.3 1019.9,930.1 1014.7,934.4 1010.3,939.3 1006.6,944.7 1003.7,950.6 1001.5,957.0 1000.1,963.9 999.4,971.1 999.5,978.8 1000.3,986.9 1001.9,995.4 1004.2,1004.1 1007.1,1013.2 1010.8,1022.5 1015.0,1032.1 1019.9,1041.8 1025.4,1051.6 1031.4,1061.5 1037.9,1071.5 1044.8,1081.4 1052.1,1091.2 1059.8,1100.9 1067.8,1110.4  Z" style="stroke-width: 0.0;  fill: rgb(230,46,230);"/>
<path d="M 1192.057,680.036 A 410.000,410.000 0.00 0,1 1199.8,709.0 L 1199.8,709.0 1187.7,712.0 1175.7,715.3 1163.9,718.9 1152.4,722.9 1141.2,727.1 1130.5,731.7 1120.2,736.6 1110.5,741.7 1101.3,747.0 1092.8,752.6 1084.9,758.4 1077.8,764.4 1071.4,770.6 1065.9,777.0 1061.1,783.5 1057.2,790.2 1054.2,796.9 1052.0,803.8 1050.7,810.7 1050.3,817.7 1050.8,824.8 1052.2,831.8 1054.4,838.9 1057.6,845.9 1061.6,852.9 1066.4,859.9 1072.0,866.8 1078.4,873.5 1085.5,880.2 1093.4,886.7 1101.9,893.1 1111.0,899.3 1120.6,905.3 1130.8,911.0 1141.4,916.5 1152.4,921.8 1163.7,926.7 1175.2,931.3 1186.9,935.6  A 410.000,410.000 0.00 0,1 1176.0,963.6 L 1176.0,963.6 1164.5,958.3 1153.2,952.7 1142.2,946.7 1131.6,940.3 1121.3,933.5 1111.4,926.5 1102.1,919.1 1093.3,911.5 1085.1,903.7 1077.6,895.7 1070.8,887.5 1064.6,879.1 1059.3,870.6 1054.7,862.0 1051.0,853.3 1048.1,844.6 1046.0,835.8 1044.7,827.0 1044.4,818.3 1044.9,809.5 1046.2,800.8 1048.4,792.3 1051.5,783.8 1055.4,775.4 1060.1,767.2 1065.6,759.2 1071.9,751.3 1078.9,743.7 1086.6,736.3 1095.0,729.2 1104.0,722.4 1113.6,715.8 1123.7,709.6 1134.3,703.7 1145.3,698.2 1156.6,693.0 1168.3,688.3 1180.1,683.9 1192.1,680.0  Z" style="stroke-width: 0.0;  fill: rgb(230,46,46);"/>
<path d="M 1020.057,454.059 A 410.000,410.000 0.00 0,1 1044.8,471.1 L 1044.8,471.1 1035.9,483.7 1027.3,497.1 1019.1,511.4 1011.2,526.3 1003.6,542.0 996.2,558.4 989.1,575.4 982.3,592.9 975.8,611.0 969.5,629.6 963.4,648.6 957.6,668.0 952.0,687.8 946.7,707.9 941.6,728.3 936.7,748.9 932.1,769.7 927.7,790.6 923.6,811.7 919.7,832.8 916.1,854.0 912.8,875.1 909.8,896.2 907.0,917.2 904.6,938.1 902.4,958.8 900.7,979.2 899.2,999.5 898.1,1019.4 897.5,1039.0 897.2,1058.2 897.4,1077.1 898.0,1095.4 899.0,1113.3 900.6,1130.7 902.7,1147.5 905.4,1163.8 908.6,1179.4 912.4,1194.3  A 410.000,410.000 0.00 0,1 883.3,1201.4 L 883.3,1201.4 880.5,1185.9 878.3,1169.8 876.6,1153.0 875.6,1135.6 875.0,1117.7 874.9,1099.3 875.2,1080.5 876.0,1061.2 877.1,1041.4 878.6,1021.4 880.5,1001.0 882.6,980.3 885.0,959.3 887.7,938.1 890.6,916.8 893.8,895.3 897.2,873.7 900.8,852.0 904.5,830.3 908.5,808.7 912.6,787.0 917.0,765.5 921.4,744.1 926.1,722.9 930.9,701.9 935.9,681.1 941.1,660.7 946.4,640.6 951.9,620.8 957.6,601.5 963.5,582.7 969.7,564.4 976.0,546.6 982.6,529.4 989.5,512.9 996.7,497.0 1004.1,481.9 1011.9,467.6 1020.1,454.1  Z" style="stroke-width: 0.0;  fill: rgb(230,144,46);"/>
<path d="M 1045.989,1128.008 A 410.000,410.000 0.00 0,1 1018.0,1147.3 L 1018.0,1147.3 1008.8,1132.1 999.7,1116.3 990.7,1099.8 981.7,1082.8 972.7,1065.3 963.7,1047.3 954.5,1029.0 945.2,1010.3 935.8,991.3 926.2,972.1 916.4,952.6 906.4,933.1 896.1,913.4 885.6,893.7 874.8,873.9 863.8,854.2 852.6,834.5 841.0,814.9 829.3,795.3 817.3,775.9 805.1,756.7 792.7,737.6 780.1,718.7 767.4,700.0 754.6,681.5 741.6,663.3 728.6,645.3 715.7,627.6 702.7,610.1 689.8,592.9 677.1,576.0 664.5,559.3 652.2,542.9 640.2,526.8 628.5,510.9 617.3,495.2 606.7,479.8 596.6,464.6 587.1,449.6  A 410.000,410.000 0.00 0,1 616.9,433.1 L 616.9,433.1 624.9,448.5 633.6,464.1 643.0,479.9 652.9,496.0 663.3,512.3 674.2,528.9 685.5,545.8 697.1,562.9 708.9,580.3 721.0,598.0 733.2,615.9 745.6,634.0 758.0,652.4 770.5,671.0 782.9,689.8 795.4,708.8 807.7,727.9 820.0,747.2 832.2,766.6 844.3,786.1 856.2,805.7 867.9,825.4 879.5,845.0 890.9,864.6 902.1,884.2 913.2,903.7 924.0,923.0 934.7,942.2 945.2,961.1 955.6,979.8 965.9,998.2 976.0,1016.3 986.0,1033.9 996.0,1051.0 1005.9,1067.7 1015.9,1083.8 1025.8,1099.2 1035.9,1114.0 1046.0,1128.0  Z" style="stroke-width: 0.0;  fill: rgb(230,46,230);"/>
<path d="M 1199.781,709.034 A 410.000,410.000 0.00 0,1 1206.7,748.4 L 1206.7,748.4 1192.2,749.9 1177.1,750.6 1161.5,750.5 1145.6,749.8 1129.3,748.4 1112.6,746.3 1095.7,743.5 1078.4,740.2 1061.0,736.2 1043.3,731.6 1025.5,726.5 1007.6,720.8 989.6,714.6 971.6,707.9 953.6,700.7 935.6,693.0 917.6,684.9 899.8,676.3 882.1,667.4 864.7,658.0 847.4,648.3 830.4,638.2 813.7,627.8 797.3,617.1 781.3,606.1 765.7,594.9 750.5,583.4 735.8,571.6 721.7,559.7 708.1,547.5 695.1,535.2 682.7,522.8 671.0,510.2 660.0,497.5 649.8,484.7 640.3,471.9 631.6,459.0 623.8,446.1 616.9,433.1  A 410.000,410.000 0.00 0,1 653.5,417.0 L 653.5,417.0 659.0,430.2 665.3,443.3 672.5,456.5 680.4,469.6 689.1,482.7 698.6,495.6 708.8,508.4 719.6,521.0 731.1,533.5 743.2,545.7 755.8,557.7 769.1,569.5 782.8,580.9 797.0,592.0 811.6,602.8 826.7,613.2 842.1,623.2 857.9,632.8 874.0,642.0 890.3,650.7 906.8,659.0 923.6,666.8 940.5,674.0 957.5,680.8 974.6,687.0 991.7,692.6 1008.9,697.7 1026.0,702.1 1043.0,706.0 1059.9,709.3 1076.6,711.9 1093.2,713.9 1109.5,715.2 1125.5,715.9 1141.1,715.9 1156.5,715.2 1171.4,713.9 1185.8,711.8 1199.8,709.0  Z" style="stroke-width: 0.0;  fill: rgb(230,46,46);"/>
<path d="M 1017.959,1147.266 A 410.000,410.000 0.00 0,1 972.3,1172.1 L 972.3,1172.1 965.7,1159.0 958.3,1145.9 950.1,1132.8 941.0,1119.7 931.2,1106.7 920.6,1093.7 909.2,1080.9 897.3,1068.1 884.6,1055.5 871.4,1043.1 857.6,1030.8 843.3,1018.8 828.5,1006.9 813.3,995.3 797.6,984.0 781.6,973.0 765.2,962.2 748.5,951.8 731.5,941.8 714.3,932.1 696.9,922.8 679.4,913.9 661.7,905.5 643.9,897.5 626.1,890.0 608.3,883.0 590.5,876.5 572.8,870.5 555.1,865.1 537.6,860.2 520.3,856.0 503.2,852.3 486.4,849.3 469.8,847.0 453.6,845.3 437.7,844.3 422.2,844.1 407.1,844.5 392.6,845.8  A 410.000,410.000 0.00 0,1 390.0,793.8 L 390.0,793.8 405.3,794.5 420.9,795.9 437.0,798.1 453.4,801.0 470.3,804.5 487.4,808.8 504.9,813.6 522.6,819.0 540.6,825.0 558.7,831.6 577.1,838.6 595.6,846.1 614.2,854.0 632.8,862.4 651.6,871.1 670.3,880.3 689.0,889.7 707.6,899.5 726.2,909.6 744.6,920.0 762.8,930.6 780.9,941.5 798.7,952.5 816.2,963.8 833.4,975.3 850.2,986.9 866.7,998.7 882.7,1010.6 898.2,1022.6 913.2,1034.8 927.6,1047.0 941.5,1059.4 954.7,1071.8 967.2,1084.2 979.0,1096.8 990.0,1109.3 1000.2,1121.9 1009.5,1134.6 1018.0,1147.3  Z" style="stroke-width: 0.0;  fill: rgb(230,46,230);"/>
<path d="M 800.000,1210.000 A 410.000,410.000 0.00 0,1 742.2,1205.9 L 742.2,1205.9 744.0,1193.7 746.1,1181.7 748.4,1169.8 750.9,1158.2 753.5,1146.9 756.4,1136.1 759.5,1125.7 762.7,1115.9 766.0,1106.7 769.6,1098.2 773.2,1090.3 777.0,1083.2 780.8,1076.9 784.8,1071.4 788.9,1066.8 793.1,1063.0 797.3,1060.1 801.6,1058.2 805.9,1057.1 810.3,1057.0 814.7,1057.8 819.1,1059.5 823.5,1062.1 827.9,1065.6 832.2,1069.9 836.6,1075.2 840.8,1081.2 845.0,1088.1 849.2,1095.7 853.2,1104.0 857.2,1113.0 861.0,1122.5 864.7,1132.7 868.2,1143.3 871.6,1154.4 874.8,1165.8 877.9,1177.5 880.7,1189.4 883.3,1201.4  A 410.000,410.000 0.00 0,1 825.8,1209.2 L 825.8,1209.2 825.0,1197.0 824.2,1184.9 823.4,1173.0 822.5,1161.3 821.6,1150.0 820.6,1139.2 819.7,1128.8 818.7,1118.9 817.8,1109.7 816.8,1101.2 815.8,1093.3 814.9,1086.3 813.9,1080.0 813.0,1074.6 812.1,1070.0 811.2,1066.3 810.3,1063.5 809.5,1061.7 808.6,1060.8 807.8,1060.8 807.1,1061.8 806.3,1063.7 805.6,1066.5 804.9,1070.2 804.3,1074.8 803.7,1080.3 803.2,1086.6 802.7,1093.8 802.2,1101.6 801.8,1110.2 801.4,1119.5 801.1,1129.4 800.8,1139.8 800.5,1150.7 800.3,1162.0 800.2,1173.7 800.1,1185.7 800.0,1197.8 800.0,1210.0  Z" style="stroke-width: 0.0;  fill: rgb(46,144,230);"/>
<path d="M 742.162,1205.900 A 410.000,410.000 0.00 0,1 638.4,1176.8 L 638.4,1176.8 644.2,1164.3 650.8,1151.8 658.2,1139.4 666.3,1127.2 675.2,1115.2 684.8,1103.3 695.0,1091.8 705.9,1080.5 717.3,1069.5 729.4,1058.9 741.9,1048.6 755.0,1038.8 768.6,1029.4 782.6,1020.4 797.0,1011.9 811.8,1003.9 826.9,996.5 842.3,989.5 858.0,983.1 873.9,977.3 890.0,972.1 906.3,967.4 922.6,963.4 939.1,959.9 955.6,957.1 972.1,954.9 988.5,953.4 1004.8,952.4 1021.1,952.1 1037.1,952.5 1053.0,953.5 1068.5,955.1 1083.8,957.3 1098.7,960.2 1113.3,963.6 1127.4,967.7 1141.0,972.4 1154.1,977.7 1166.6,983.5  A 410.000,410.000 0.00 0,1 1106.2,1072.7 L 1106.2,1072.7 1096.3,1064.3 1086.0,1056.3 1075.3,1048.8 1064.3,1041.8 1052.9,1035.2 1041.2,1029.3 1029.4,1023.9 1017.4,1019.2 1005.2,1015.1 992.9,1011.7 980.6,1009.0 968.3,1007.1 956.0,1005.8 943.8,1005.4 931.6,1005.6 919.6,1006.7 907.8,1008.5 896.2,1011.0 884.8,1014.4 873.6,1018.4 862.8,1023.3 852.2,1028.8 842.0,1035.1 832.2,1042.0 822.7,1049.6 813.7,1057.9 805.1,1066.8 797.0,1076.2 789.3,1086.2 782.1,1096.7 775.5,1107.7 769.3,1119.1 763.7,1130.8 758.7,1142.9 754.2,1155.2 750.3,1167.7 747.0,1180.4 744.3,1193.2 742.2,1205.9  Z" style="stroke-width: 0.0;  fill: rgb(46,144,230);"/>
<path d="M 1206.744,748.429 A 410.000,410.000 0.00 0,1 1201.4,883.8 L 1201.4,883.8 1184.4,880.5 1166.8,877.7 1148.6,875.3 1129.8,873.1 1110.6,871.2 1090.8,869.5 1070.6,867.9 1050.0,866.4 1029.0,865.0 1007.7,863.5 986.0,862.1 964.1,860.6 942.0,859.0 919.7,857.4 897.2,855.6 874.6,853.7 851.9,851.6 829.1,849.4 806.3,847.0 783.5,844.5 760.8,841.8 738.1,839.0 715.5,836.0 693.0,832.9 670.6,829.8 648.5,826.5 626.6,823.2 604.9,819.8 583.5,816.5 562.3,813.2 541.5,810.0 521.1,807.0 501.0,804.1 481.4,801.4 462.2,799.1 443.4,797.1 425.1,795.5 407.3,794.4 390.0,793.8  A 410.000,410.000 0.00 0,1 414.4,660.6 L 414.4,660.6 430.1,665.9 446.5,670.8 463.6,675.2 481.3,679.4 499.6,683.2 518.5,686.8 537.9,690.2 557.8,693.4 578.1,696.4 598.9,699.3 620.0,702.1 641.4,704.9 663.1,707.5 685.0,710.1 707.2,712.7 729.5,715.3 752.0,717.8 774.5,720.3 797.1,722.9 819.7,725.4 842.3,727.9 864.9,730.3 887.3,732.8 909.7,735.2 931.8,737.5 953.8,739.8 975.6,741.9 997.1,744.0 1018.3,745.8 1039.1,747.5 1059.6,749.0 1079.8,750.3 1099.4,751.2 1118.7,751.9 1137.4,752.1 1155.6,752.0 1173.2,751.3 1190.3,750.2 1206.7,748.4  Z" style="stroke-width: 0.0;  fill: rgb(230,46,46);"/>
<path d="M 638.416,1176.816 A 410.000,410.000 0.00 0,1 501.6,1081.2 L 501.6,1081.2 512.9,1070.0 524.1,1057.9 535.2,1045.1 546.2,1031.4 557.0,1017.0 567.9,1001.9 578.6,986.2 589.3,969.9 599.9,953.1 610.5,935.8 621.0,918.0 631.4,899.8 641.8,881.3 652.2,862.4 662.4,843.3 672.6,823.9 682.7,804.4 692.7,784.6 702.6,764.8 712.3,744.8 721.9,724.8 731.3,704.8 740.5,684.8 749.6,664.9 758.3,645.0 766.9,625.3 775.1,605.7 783.0,586.3 790.5,567.1 797.7,548.1 804.4,529.3 810.7,510.9 816.5,492.8 821.7,475.0 826.4,457.5 830.4,440.5 833.8,423.8 836.4,407.6 838.3,391.8  A 410.000,410.000 0.00 0,1 997.8,440.9 L 997.8,440.9 989.6,456.3 981.6,472.5 973.7,489.3 965.9,506.7 958.2,524.7 950.4,543.1 942.7,562.0 934.8,581.2 926.8,600.8 918.8,620.7 910.5,640.8 902.1,661.1 893.5,681.6 884.7,702.1 875.7,722.8 866.5,743.5 857.1,764.2 847.4,785.0 837.6,805.6 827.5,826.2 817.3,846.6 806.9,867.0 796.3,887.2 785.7,907.2 774.9,927.0 764.1,946.6 753.2,965.9 742.4,985.0 731.6,1003.9 720.9,1022.5 710.4,1040.8 700.0,1058.8 689.9,1076.6 680.2,1094.0 670.8,1111.2 661.8,1128.0 653.4,1144.6 645.6,1160.8 638.4,1176.8  Z" style="stroke-width: 0.0;  fill: rgb(46,144,230);"/>
<path d="M 1062.068,484.690 A 410.000,410.000 0.00 0,1 1174.6,633.4 L 1174.6,633.4 1161.8,638.6 1148.5,643.3 1134.6,647.3 1120.3,650.8 1105.6,653.6 1090.6,655.8 1075.2,657.3 1059.5,658.2 1043.6,658.5 1027.5,658.1 1011.3,657.1 995.0,655.5 978.6,653.2 962.2,650.2 945.8,646.7 929.5,642.5 913.2,637.8 897.2,632.4 881.2,626.5 865.5,619.9 850.1,612.9 834.9,605.3 820.1,597.1 805.6,588.5 791.6,579.4 777.9,569.9 764.7,559.9 752.0,549.5 739.8,538.7 728.2,527.6 717.2,516.1 706.8,504.4 697.0,492.4 687.9,480.2 679.5,467.8 671.9,455.2 665.0,442.6 658.8,429.8 653.5,417.0  A 410.000,410.000 0.00 0,1 838.3,391.8 L 838.3,391.8 837.3,404.2 836.7,416.7 836.6,429.1 836.8,441.3 837.5,453.3 838.6,465.1 840.1,476.5 842.1,487.5 844.5,498.0 847.4,508.0 850.7,517.4 854.4,526.2 858.6,534.4 863.2,541.9 868.2,548.7 873.6,554.7 879.4,560.0 885.6,564.5 892.2,568.2 899.1,571.0 906.3,573.1 913.9,574.3 921.7,574.7 929.8,574.3 938.2,573.0 946.7,571.0 955.4,568.2 964.3,564.6 973.3,560.3 982.5,555.2 991.6,549.5 1000.8,543.2 1009.9,536.2 1019.0,528.7 1028.0,520.7 1036.9,512.2 1045.5,503.4 1053.9,494.2 1062.1,484.7  Z" style="stroke-width: 0.0;  fill: rgb(230,144,46);"/>
<path d="M 501.612,1081.184 A 410.000,410.000 0.00 0,1 396.3,871.4 L 396.3,871.4 408.5,869.0 420.6,866.3 432.5,863.3 444.2,859.9 455.6,856.2 466.5,852.2 477.0,847.8 487.0,843.2 496.4,838.3 505.2,833.2 513.3,827.8 520.7,822.2 527.3,816.4 533.2,810.3 538.2,804.1 542.5,797.7 545.8,791.1 548.3,784.4 549.9,777.6 550.6,770.7 550.4,763.7 549.4,756.7 547.4,749.6 544.6,742.4 541.0,735.3 536.5,728.2 531.2,721.1 525.1,714.1 518.2,707.2 510.7,700.3 502.5,693.6 493.7,687.1 484.3,680.7 474.4,674.5 464.0,668.6 453.3,662.9 442.2,657.4 430.9,652.3 419.4,647.5  A 410.000,410.000 0.00 0,1 565.5,463.7 L 565.5,463.7 573.3,475.6 580.6,488.2 587.5,501.5 593.9,515.5 599.8,530.1 605.2,545.2 610.1,560.8 614.5,576.9 618.4,593.4 621.7,610.3 624.5,627.6 626.8,645.1 628.6,662.9 629.9,681.0 630.6,699.2 630.8,717.5 630.4,735.9 629.6,754.4 628.2,772.9 626.3,791.4 623.8,809.7 620.9,828.0 617.5,846.1 613.5,864.0 609.1,881.7 604.2,899.1 598.8,916.2 593.0,932.9 586.7,949.2 579.9,965.0 572.7,980.4 565.2,995.3 557.2,1009.6 548.8,1023.3 540.0,1036.3 530.9,1048.6 521.5,1060.3 511.7,1071.1 501.6,1081.2  Z" style="stroke-width: 0.0;  fill: rgb(46,144,230);"/>
</g>
</svg>
